<svg width="26" height="23" viewBox="0 0 26 23" fill="none" xmlns="http://www.w3.org/2000/svg">
<g clip-path="url(#clip0_30_2030)">
<path d="M26 11.4005C26 14.4241 24.6304 17.3238 22.1924 19.4618C19.7544 21.5999 16.4478 22.801 13 22.801C9.55219 22.801 6.24558 21.5999 3.80761 19.4618C1.36964 17.3238 0 14.4241 0 11.4005C0 8.37689 1.36964 5.47713 3.80761 3.33912C6.24558 1.20112 9.55219 0 13 0C16.4478 0 19.7544 1.20112 22.1924 3.33912C24.6304 5.47713 26 8.37689 26 11.4005ZM13 4.98771C13 4.79874 12.9144 4.6175 12.762 4.48388C12.6097 4.35025 12.403 4.27518 12.1875 4.27518C11.972 4.27518 11.7653 4.35025 11.613 4.48388C11.4606 4.6175 11.375 4.79874 11.375 4.98771V12.8255C11.375 12.9511 11.4129 13.0745 11.4849 13.1831C11.5568 13.2917 11.6601 13.3817 11.7845 13.444L17.472 16.2941C17.6586 16.3826 17.8773 16.4035 18.0814 16.3525C18.2854 16.3014 18.4585 16.1824 18.5638 16.0208C18.669 15.8593 18.698 15.668 18.6447 15.488C18.5913 15.3079 18.4597 15.1533 18.278 15.0572L13 12.4123V4.98771Z" fill="black"/>
</g>
<defs>
<clipPath id="clip0_30_2030">
<rect width="26" height="22.801" fill="white"/>
</clipPath>
</defs>
</svg>
