<svg width="34" height="32" viewBox="0 0 34 32" fill="none" xmlns="http://www.w3.org/2000/svg">
<path d="M29.0232 22.2051L23.2645 17.4169C22.9923 17.1907 22.6345 17.07 22.2669 17.0804C21.8992 17.0908 21.5503 17.2315 21.2939 17.4727L17.9038 20.6609C17.0878 20.5184 15.4473 20.0507 13.7586 18.5104C12.07 16.9648 11.5586 15.4607 11.407 14.7197L14.8906 11.6182C15.1546 11.3839 15.3087 11.0648 15.32 10.7285C15.3314 10.3922 15.1992 10.065 14.9515 9.81619L9.71689 4.55124C9.46903 4.30167 9.12455 4.15028 8.75661 4.12924C8.38866 4.10819 8.02624 4.21914 7.74631 4.43853L4.67214 6.84947C4.42721 7.07426 4.28102 7.37344 4.26131 7.69026C4.24006 8.01413 3.83489 15.6861 10.3402 21.6377C16.0154 26.8262 23.1242 27.2058 25.0821 27.2058C25.3682 27.2058 25.5439 27.198 25.5906 27.1955C25.937 27.1777 26.264 27.0434 26.5086 26.8185L29.1436 24.0059C29.3845 23.7507 29.5067 23.4196 29.4842 23.0831C29.4617 22.7467 29.2963 22.4316 29.0232 22.2051Z" fill="black"/>
</svg>
