<svg width="28" height="28" viewBox="0 0 28 28" fill="none" xmlns="http://www.w3.org/2000/svg">
<path d="M23.3334 13.9998V8.1665H25.6667V15.1665H23.3334M23.3334 19.8332H25.6667V17.4998H23.3334M11.6667 15.1665C14.7817 15.1665 21 16.7298 21 19.8332V23.3332H2.33337V19.8332C2.33337 16.7298 8.55171 15.1665 11.6667 15.1665ZM11.6667 4.6665C12.9044 4.6665 14.0914 5.15817 14.9665 6.03334C15.8417 6.90851 16.3334 8.09549 16.3334 9.33317C16.3334 10.5708 15.8417 11.7578 14.9665 12.633C14.0914 13.5082 12.9044 13.9998 11.6667 13.9998C10.429 13.9998 9.24205 13.5082 8.36688 12.633C7.49171 11.7578 7.00004 10.5708 7.00004 9.33317C7.00004 8.09549 7.49171 6.90851 8.36688 6.03334C9.24205 5.15817 10.429 4.6665 11.6667 4.6665ZM11.6667 17.3832C8.20171 17.3832 4.55004 19.0865 4.55004 19.8332V21.1165H18.7834V19.8332C18.7834 19.0865 15.1317 17.3832 11.6667 17.3832ZM11.6667 6.88317C11.0169 6.88317 10.3938 7.14129 9.9343 7.60076C9.47483 8.06022 9.21671 8.68339 9.21671 9.33317C9.21671 9.98295 9.47483 10.6061 9.9343 11.0656C10.3938 11.525 11.0169 11.7832 11.6667 11.7832C12.3165 11.7832 12.9397 11.525 13.3991 11.0656C13.8586 10.6061 14.1167 9.98295 14.1167 9.33317C14.1167 8.68339 13.8586 8.06022 13.3991 7.60076C12.9397 7.14129 12.3165 6.88317 11.6667 6.88317Z" fill="black"/>
</svg>
