<svg width="26" height="29" viewBox="0 0 26 29" fill="none" xmlns="http://www.w3.org/2000/svg">
<path d="M12.9721 0C9.53295 0.00356336 6.2358 1.20503 3.80394 3.34084C1.37207 5.47665 0.00407109 8.3724 1.3801e-05 11.3929C-0.0041053 13.8612 0.913935 16.2626 2.6133 18.2286C2.6133 18.2286 2.96709 18.6377 3.02487 18.6968L12.9721 29.0001L22.9241 18.6916C22.976 18.6367 23.3309 18.2286 23.3309 18.2286L23.3321 18.2255C25.0306 16.2604 25.9483 13.8601 25.9442 11.3929C25.9402 8.3724 24.5722 5.47665 22.1403 3.34084C19.7084 1.20503 16.4113 0.00356336 12.9721 0ZM12.9721 15.5358C12.0392 15.5358 11.1272 15.2928 10.3514 14.8376C9.5757 14.3823 8.97109 13.7353 8.61406 12.9783C8.25703 12.2213 8.16362 11.3883 8.34563 10.5847C8.52764 9.78102 8.9769 9.04283 9.6366 8.46344C10.2963 7.88405 11.1368 7.48948 12.0519 7.32962C12.9669 7.16977 13.9153 7.25181 14.7773 7.56538C15.6392 7.87894 16.3759 8.40995 16.8943 9.09124C17.4126 9.77253 17.6892 10.5735 17.6892 11.3929C17.6877 12.4912 17.1902 13.5442 16.3059 14.3208C15.4216 15.0975 14.2227 15.5344 12.9721 15.5358Z" fill="black"/>
</svg>
