<svg width="88" height="96" viewBox="0 0 88 96" fill="none" xmlns="http://www.w3.org/2000/svg">
<path d="M14 33.4888L9.4 22.2461L0 16.7444L9.4 11.2427L14 0L18.6 11.2427L28 16.7444L18.6 22.2461L14 33.4888ZM72 90.8982L66.8 77.9811L56 71.7617L66.8 65.5424L72 52.6253L77.2 65.5424L88 71.7617L77.2 77.9811L72 90.8982ZM45.3 95.6823C42.9667 95.6823 40.7507 95.1034 38.652 93.9457C36.5507 92.7911 34.7333 91.1773 33.2 89.1042L12 59.8015L17.4 53.3429C18.7333 51.7482 20.3333 50.8312 22.2 50.592C24.0667 50.3528 25.8 50.8711 27.4 52.1469L34 57.4094V19.1365C34 16.5052 34.784 14.2535 36.352 12.3813C37.9173 10.5059 39.8 9.56823 42 9.56823C42.3333 9.56823 42.6667 9.58737 43 9.62564C43.3333 9.66711 43.6667 9.76757 44 9.92704V9.56823C44 6.93697 44.784 4.68365 46.352 2.80828C47.9173 0.936092 49.8 0 52 0C53.6 0 55.0333 0.497548 56.3 1.49264C57.5667 2.49093 58.5333 3.78743 59.2 5.38213C59.6667 5.22266 60.1173 5.08233 60.552 4.96113C60.984 4.84312 61.4667 4.78412 62 4.78412C64.2 4.78412 66.084 5.72021 67.652 7.59239C69.2173 9.46777 70 11.7211 70 14.3523V14.7112C70.3333 14.5517 70.6667 14.4512 71 14.4098C71.3333 14.3715 71.6667 14.3523 72 14.3523C74.2 14.3523 76.084 15.29 77.652 17.1654C79.2173 19.0376 80 21.2893 80 23.9206V40.665H74V23.9206C74 23.2827 73.8 22.7246 73.4 22.2461C73 21.7677 72.5333 21.5285 72 21.5285C71.4667 21.5285 71 21.7677 70.6 22.2461C70.2 22.7246 70 23.2827 70 23.9206V47.8412H64V14.3523C64 13.7145 63.8 13.1563 63.4 12.6779C63 12.1995 62.5333 11.9603 62 11.9603C61.4667 11.9603 61 12.1995 60.6 12.6779C60.2 13.1563 60 13.7145 60 14.3523V47.8412H54V9.56823C54 8.93035 53.8 8.3722 53.4 7.89379C53 7.41538 52.5333 7.17617 52 7.17617C51.4667 7.17617 51 7.41538 50.6 7.89379C50.2 8.3722 50 8.93035 50 9.56823V47.8412H44V19.1365C44 18.4986 43.8 17.9596 43.4 17.5194C43 17.0825 42.5333 16.864 42 16.864C41.4667 16.864 41 17.1032 40.6 17.5816C40.2 18.06 40 18.6182 40 19.2561V70.9245L24.1 58.2466C23.5667 57.8479 23.0667 57.7283 22.6 57.8878C22.1333 58.0473 21.8 58.2466 21.6 58.4858L20.2 60.1603L37.8 84.4397C38.7333 85.7952 39.8507 86.8126 41.152 87.4919C42.4507 88.1681 43.8333 88.5061 45.3 88.5061H59L62 95.6823H45.3Z" fill="#704116"/>
</svg>
