<svg width="102" height="117" viewBox="0 0 102 117" fill="none" xmlns="http://www.w3.org/2000/svg">
<g clip-path="url(#clip0_15_2005)">
<path d="M68 53.625C75.055 53.625 80.7075 47.0925 80.7075 39C80.7075 30.9075 75.055 24.375 68 24.375C60.945 24.375 55.25 30.9075 55.25 39C55.25 47.0925 60.945 53.625 68 53.625ZM34 53.625C41.055 53.625 46.7075 47.0925 46.7075 39C46.7075 30.9075 41.055 24.375 34 24.375C26.945 24.375 21.25 30.9075 21.25 39C21.25 47.0925 26.945 53.625 34 53.625ZM34 63.375C24.0975 63.375 4.25 69.0788 4.25 80.4375V92.625H63.75V80.4375C63.75 69.0788 43.9025 63.375 34 63.375ZM68 63.375C66.7675 63.375 65.365 63.4725 63.8775 63.6188C68.8075 67.7137 72.25 73.2225 72.25 80.4375V92.625H97.75V80.4375C97.75 69.0788 77.9025 63.375 68 63.375Z" fill="#704116"/>
</g>
<defs>
<clipPath id="clip0_15_2005">
<rect width="102" height="117" fill="white"/>
</clipPath>
</defs>
</svg>
